<mxfile host="app.diagrams.net" modified="2023-09-25T16:33:14.071Z" agent="Mozilla/5.0 (Windows NT 10.0; Win64; x64) AppleWebKit/537.36 (KHTML, like Gecko) Chrome/116.0.0.0 Safari/537.36" etag="Fa-KKBMgq4XP1Xc04BSm" version="21.7.5" type="device">
  <diagram name="Page-1" id="fSyFRknZPOplNpxR5OrM">
    <mxGraphModel dx="946" dy="572" grid="1" gridSize="10" guides="1" tooltips="1" connect="1" arrows="1" fold="1" page="1" pageScale="1" pageWidth="850" pageHeight="1100" math="0" shadow="0">
      <root>
        <mxCell id="0" />
        <mxCell id="1" parent="0" />
        <mxCell id="zxqdLBsL2-AEQwIWG-Yf-2" value="Vue JS app" style="rounded=1;whiteSpace=wrap;html=1;fontSize=15;" vertex="1" parent="1">
          <mxGeometry x="180" y="200" width="120" height="60" as="geometry" />
        </mxCell>
        <mxCell id="zxqdLBsL2-AEQwIWG-Yf-3" value="Keycloak" style="rounded=1;whiteSpace=wrap;html=1;fontSize=15;" vertex="1" parent="1">
          <mxGeometry x="425" y="140" width="120" height="60" as="geometry" />
        </mxCell>
        <mxCell id="zxqdLBsL2-AEQwIWG-Yf-4" value="Spring Resource Server" style="rounded=1;whiteSpace=wrap;html=1;fontSize=15;" vertex="1" parent="1">
          <mxGeometry x="425" y="270" width="120" height="60" as="geometry" />
        </mxCell>
        <mxCell id="zxqdLBsL2-AEQwIWG-Yf-5" value="" style="endArrow=classic;html=1;rounded=0;exitX=1;exitY=0.5;exitDx=0;exitDy=0;entryX=0;entryY=0.5;entryDx=0;entryDy=0;" edge="1" parent="1" source="zxqdLBsL2-AEQwIWG-Yf-2" target="zxqdLBsL2-AEQwIWG-Yf-3">
          <mxGeometry width="50" height="50" relative="1" as="geometry">
            <mxPoint x="320" y="270" as="sourcePoint" />
            <mxPoint x="370" y="220" as="targetPoint" />
          </mxGeometry>
        </mxCell>
        <mxCell id="zxqdLBsL2-AEQwIWG-Yf-9" value="1. Authentication" style="edgeLabel;html=1;align=center;verticalAlign=middle;resizable=0;points=[];fontSize=13;" vertex="1" connectable="0" parent="zxqdLBsL2-AEQwIWG-Yf-5">
          <mxGeometry x="-0.0403" y="-4" relative="1" as="geometry">
            <mxPoint x="-21" y="-35" as="offset" />
          </mxGeometry>
        </mxCell>
        <mxCell id="zxqdLBsL2-AEQwIWG-Yf-6" value="" style="endArrow=classic;html=1;rounded=0;exitX=1;exitY=0.5;exitDx=0;exitDy=0;entryX=0;entryY=0.5;entryDx=0;entryDy=0;" edge="1" parent="1" source="zxqdLBsL2-AEQwIWG-Yf-2" target="zxqdLBsL2-AEQwIWG-Yf-4">
          <mxGeometry width="50" height="50" relative="1" as="geometry">
            <mxPoint x="250" y="380" as="sourcePoint" />
            <mxPoint x="300" y="330" as="targetPoint" />
          </mxGeometry>
        </mxCell>
        <mxCell id="zxqdLBsL2-AEQwIWG-Yf-10" value="2. Retrieve data" style="edgeLabel;html=1;align=center;verticalAlign=middle;resizable=0;points=[];fontSize=13;" vertex="1" connectable="0" parent="zxqdLBsL2-AEQwIWG-Yf-6">
          <mxGeometry x="-0.0179" y="-1" relative="1" as="geometry">
            <mxPoint x="-11" y="25" as="offset" />
          </mxGeometry>
        </mxCell>
        <mxCell id="zxqdLBsL2-AEQwIWG-Yf-7" value="" style="endArrow=classic;html=1;rounded=0;exitX=0.5;exitY=0;exitDx=0;exitDy=0;entryX=0.5;entryY=1;entryDx=0;entryDy=0;" edge="1" parent="1" source="zxqdLBsL2-AEQwIWG-Yf-4" target="zxqdLBsL2-AEQwIWG-Yf-3">
          <mxGeometry width="50" height="50" relative="1" as="geometry">
            <mxPoint x="430" y="420" as="sourcePoint" />
            <mxPoint x="480" y="370" as="targetPoint" />
          </mxGeometry>
        </mxCell>
        <mxCell id="zxqdLBsL2-AEQwIWG-Yf-11" value="1-2. In mean time query information for validation" style="edgeLabel;html=1;align=center;verticalAlign=middle;resizable=0;points=[];fontSize=13;" vertex="1" connectable="0" parent="zxqdLBsL2-AEQwIWG-Yf-7">
          <mxGeometry x="0.0818" y="-1" relative="1" as="geometry">
            <mxPoint x="59" y="8" as="offset" />
          </mxGeometry>
        </mxCell>
      </root>
    </mxGraphModel>
  </diagram>
</mxfile>
